<svg id="Layer_1" data-name="Layer 1" xmlns="http://www.w3.org/2000/svg" viewBox="0 0 154.21 31.58"><title>logo</title><path d="M149.76,373.13a1,1,0,0,1,.54.15,0.62,0.62,0,0,1,.22.55l0.08,4.09a0.47,0.47,0,0,1-.28.44,1.11,1.11,0,0,1-.51.14,1.28,1.28,0,0,1-.59-0.13,0.56,0.56,0,0,1-.32-0.39,14.29,14.29,0,0,0-.34-1.68,3.68,3.68,0,0,0-.5-1.12,1.8,1.8,0,0,0-.79-0.64,3.54,3.54,0,0,0-1.24-.23h-3.92v7.43h5.29a0.42,0.42,0,0,1,.34.23,1,1,0,0,1,.1.44,0.79,0.79,0,0,1-.1.41,0.36,0.36,0,0,1-.34.17h-5.29v5.53c0,0.19,0,.41.06,0.63a1.35,1.35,0,0,0,.22.63,1.37,1.37,0,0,0,.6.48,2.61,2.61,0,0,0,1.17.16h2.69a4.59,4.59,0,0,0,1.24-.19,1.7,1.7,0,0,0,.8-0.56,3.55,3.55,0,0,0,.56-1q0.23-.64.53-1.61a0.61,0.61,0,0,1,.39-0.38,1.21,1.21,0,0,1,.6,0,1.69,1.69,0,0,1,.48.22,0.46,0.46,0,0,1,.22.45L151.1,391a0.73,0.73,0,0,1-.28.51,1.28,1.28,0,0,1-.57.1H138.89q-0.83,0-1.8.07a0.4,0.4,0,0,1-.38-0.21,0.86,0.86,0,0,1-.12-0.44,0.57,0.57,0,0,1,.22-0.56,1.76,1.76,0,0,1,.51-0.06,2.45,2.45,0,0,0,1.08-.19,1.22,1.22,0,0,0,.55-0.51,1.9,1.9,0,0,0,.22-0.73,7.22,7.22,0,0,0,0-.82V376.55a7.19,7.19,0,0,0,0-.82A1.9,1.9,0,0,0,139,375a1.24,1.24,0,0,0-.55-0.51,2.49,2.49,0,0,0-1.08-.19,1.79,1.79,0,0,1-.51-0.06,0.57,0.57,0,0,1-.22-0.56,0.85,0.85,0,0,1,.12-0.44,0.4,0.4,0,0,1,.38-0.21c0.64,0,1.23.06,1.78,0.07l1.7,0h9.18Z" transform="translate(-101.38 -370.26)" fill="#425968"/><path d="M164.23,388.84a7.49,7.49,0,0,0,1,1.2,1.85,1.85,0,0,0,1.32.53,2.05,2.05,0,0,1,.45,0,0.46,0.46,0,0,1,.22.48,0.73,0.73,0,0,1-.12.41,0.39,0.39,0,0,1-.35.17l-1.43-.07h-2.89c-0.49,0-1,0-1.58.07a0.4,0.4,0,0,1-.35-0.17,0.73,0.73,0,0,1-.12-0.41,0.46,0.46,0,0,1,.22-0.48,2,2,0,0,1,.45,0c0.39,0,.59-0.11.61-0.34a1.51,1.51,0,0,0-.41-0.92l-2.28-3-2.51,3a1.19,1.19,0,0,0-.45,1,1.67,1.67,0,0,0,1.18.24,1.84,1.84,0,0,1,.44,0,0.48,0.48,0,0,1,.21.48,1,1,0,0,1-.09.38,0.32,0.32,0,0,1-.32.21l-0.7,0-0.56,0h-2.41l-0.57,0-0.73,0a0.35,0.35,0,0,1-.34-0.21,0.84,0.84,0,0,1-.1-0.38,0.47,0.47,0,0,1,.22-0.48,1.87,1.87,0,0,1,.42,0,2.7,2.7,0,0,0,.79-0.1,1.82,1.82,0,0,0,.59-0.32,5.05,5.05,0,0,0,.54-0.54c0.18-.21.4-0.47,0.63-0.76s0.82-.94,1.33-1.58,1.06-1.31,1.62-2l-3.33-4.71a3.19,3.19,0,0,0-.79-0.76,3.27,3.27,0,0,0-1.05-.41,3.85,3.85,0,0,1-.51-0.1,0.5,0.5,0,0,1-.16-0.45c0-.33.07-0.51,0.28-0.54l0.75-.07a4.76,4.76,0,0,1,4.33,1.64,12.9,12.9,0,0,1,.85,1.3,21.11,21.11,0,0,0,1.38,2l2-2.55q0.26-.38.41-0.63a0.44,0.44,0,0,0,.09-0.38,0.46,0.46,0,0,0-.35-0.19,4.93,4.93,0,0,0-.88-0.06,1.77,1.77,0,0,1-.44,0,0.48,0.48,0,0,1-.21-0.48,1,1,0,0,1,.09-0.38,0.32,0.32,0,0,1,.32-0.2l0.7,0,0.55,0h2.41l0.57,0,0.73,0a0.35,0.35,0,0,1,.34.2,0.86,0.86,0,0,1,.1.38,0.43,0.43,0,0,1-.22.47l-0.43.06a3.77,3.77,0,0,0-.74.12,1.86,1.86,0,0,0-.57.28,3.62,3.62,0,0,0-.55.51c-0.2.21-.42,0.49-0.67,0.82s-0.59.71-1,1.26-0.9,1.15-1.45,1.81l1.91,2.5Z" transform="translate(-101.38 -370.26)" fill="#425968"/><path d="M177,388.28a0.42,0.42,0,0,1,.62-0.06,0.66,0.66,0,0,1,.29.32,0.39,0.39,0,0,1-.06.41,7,7,0,0,1-2.38,2.2,5.94,5.94,0,0,1-2.91.79,6.87,6.87,0,0,1-2.67-.5,5.44,5.44,0,0,1-2-1.42,6.32,6.32,0,0,1-1.26-2.21,8.84,8.84,0,0,1-.44-2.87,7.68,7.68,0,0,1,.6-2.78,6.87,6.87,0,0,1,1.46-2.18,6.52,6.52,0,0,1,2.16-1.43,7.7,7.7,0,0,1,2.65-.57c0.25,0,.61,0,1.07.06a6,6,0,0,1,1.38.29,4.05,4.05,0,0,1,1.27.72,2.55,2.55,0,0,1,.82,1.36,2.7,2.7,0,0,1,0,1,2.55,2.55,0,0,1-.32.93,2,2,0,0,1-.67.69,1.82,1.82,0,0,1-1,.26,1.41,1.41,0,0,1-1-.32,0.9,0.9,0,0,1-.35-0.47,0.45,0.45,0,0,1,.15-0.14,3.07,3.07,0,0,0,.34-0.32,2.26,2.26,0,0,0,.34-0.48,1.38,1.38,0,0,0,.15-0.66,1.52,1.52,0,0,0-.67-1.37,2.92,2.92,0,0,0-1.52-.47,3.3,3.3,0,0,0-3.25,1.93,6,6,0,0,0-.54,1.87,15.55,15.55,0,0,0-.13,2,8.51,8.51,0,0,0,.28,2.24,5.5,5.5,0,0,0,.8,1.78,3.86,3.86,0,0,0,1.29,1.17,3.43,3.43,0,0,0,1.7.42,4.06,4.06,0,0,0,2.17-.54A5.35,5.35,0,0,0,177,388.28Z" transform="translate(-101.38 -370.26)" fill="#425968"/><path d="M190.63,388.86a6.8,6.8,0,0,1-2.28,2.25,6.06,6.06,0,0,1-3.16.82,7.47,7.47,0,0,1-3-.56,5.89,5.89,0,0,1-2.14-1.52,6.58,6.58,0,0,1-1.28-2.25,8.35,8.35,0,0,1-.44-2.72,7.27,7.27,0,0,1,.45-2.5,7.11,7.11,0,0,1,1.3-2.22,6.52,6.52,0,0,1,2-1.58,6,6,0,0,1,2.72-.6,6.89,6.89,0,0,1,2.35.36,4.63,4.63,0,0,1,2.78,2.59,6.08,6.08,0,0,1,.48,2,1.41,1.41,0,0,1-.57,1.34,3,3,0,0,1-1.48.32h-7.1a9.93,9.93,0,0,0,.26,2.37,5.4,5.4,0,0,0,.82,1.87,3.77,3.77,0,0,0,1.43,1.23,4.67,4.67,0,0,0,2.1.44,4,4,0,0,0,2.11-.53,5.47,5.47,0,0,0,1.7-1.84,0.44,0.44,0,0,1,.64,0,0.63,0.63,0,0,1,.29.38A0.49,0.49,0,0,1,190.63,388.86Zm-4.53-5.41a1.94,1.94,0,0,0,1.11-.28,1.2,1.2,0,0,0,.47-1,4.22,4.22,0,0,0-.17-1.2,3.19,3.19,0,0,0-.53-1,2.52,2.52,0,0,0-.87-0.72,2.73,2.73,0,0,0-1.23-.26,3,3,0,0,0-2.46,1.17,5.48,5.48,0,0,0-1.08,3.27h4.77Z" transform="translate(-101.38 -370.26)" fill="#425968"/><path d="M192.36,374.3v-0.75a1.5,1.5,0,0,0-.13-0.64,0.94,0.94,0,0,0-.44-0.44,2,2,0,0,0-.92-0.16,1.47,1.47,0,0,1-.48-0.08,0.47,0.47,0,0,1-.22-0.51,0.49,0.49,0,0,1,.12-0.32,0.63,0.63,0,0,1,.35-0.21q1-.15,1.64-0.31t1.05-.29l0.66-.22a2.34,2.34,0,0,1,.48-0.12,0.54,0.54,0,0,1,.4.09,0.56,0.56,0,0,1,.16.47v18.5a1.48,1.48,0,0,0,.13.64,0.93,0.93,0,0,0,.45.44,2.14,2.14,0,0,0,.94.16,2,2,0,0,1,.45,0,0.47,0.47,0,0,1,.22.48,0.72,0.72,0,0,1-.12.41,0.4,0.4,0,0,1-.35.17q-0.85-.06-1.56-0.07h-3q-0.7,0-1.55.07a0.4,0.4,0,0,1-.35-0.17,0.71,0.71,0,0,1-.12-0.41,0.47,0.47,0,0,1,.22-0.48,2.05,2.05,0,0,1,.45,0,2,2,0,0,0,.92-0.16,1,1,0,0,0,.44-0.44,1.67,1.67,0,0,0,.15-0.64c0-.24,0-0.49,0-0.75V374.3Z" transform="translate(-101.38 -370.26)" fill="#425968"/><path d="M208.74,388.86a6.8,6.8,0,0,1-2.28,2.25,6.06,6.06,0,0,1-3.16.82,7.47,7.47,0,0,1-3-.56,5.88,5.88,0,0,1-2.13-1.52,6.59,6.59,0,0,1-1.29-2.25,8.4,8.4,0,0,1-.44-2.72,7.23,7.23,0,0,1,.45-2.5,7,7,0,0,1,1.3-2.22,6.49,6.49,0,0,1,2-1.58A6,6,0,0,1,203,378a6.9,6.9,0,0,1,2.35.36,4.63,4.63,0,0,1,2.78,2.59,6.08,6.08,0,0,1,.48,2,1.41,1.41,0,0,1-.57,1.34,3,3,0,0,1-1.48.32h-7.1a10,10,0,0,0,.26,2.37,5.53,5.53,0,0,0,.82,1.87A3.79,3.79,0,0,0,202,390a4.68,4.68,0,0,0,2.11.44,4,4,0,0,0,2.1-.53,5.44,5.44,0,0,0,1.7-1.84,0.44,0.44,0,0,1,.64,0,0.63,0.63,0,0,1,.29.38A0.49,0.49,0,0,1,208.74,388.86Zm-4.53-5.41a1.94,1.94,0,0,0,1.11-.28,1.2,1.2,0,0,0,.47-1,4.09,4.09,0,0,0-.18-1.2,3.18,3.18,0,0,0-.52-1,2.53,2.53,0,0,0-.88-0.72A2.73,2.73,0,0,0,203,379a3,3,0,0,0-2.46,1.17,5.52,5.52,0,0,0-1.08,3.27h4.77Z" transform="translate(-101.38 -370.26)" fill="#425968"/><path d="M211,381.88v-0.75a1.5,1.5,0,0,0-.13-0.64,1,1,0,0,0-.44-0.44,2.06,2.06,0,0,0-.92-0.16,1.52,1.52,0,0,1-.48-0.07,0.47,0.47,0,0,1-.22-0.51,0.5,0.5,0,0,1,.12-0.32,0.6,0.6,0,0,1,.35-0.2q1-.15,1.64-0.31c0.43-.11.78-0.2,1.05-0.29l0.64-.22a2,2,0,0,1,.47-0.12,0.53,0.53,0,0,1,.39.09,0.56,0.56,0,0,1,.16.47v1.81h0.09a11.16,11.16,0,0,1,2-1.59,3.82,3.82,0,0,1,1.93-.63,1.93,1.93,0,0,1,1.58.74,2.37,2.37,0,0,1,.39.76,2.92,2.92,0,0,1,.13.86,2.36,2.36,0,0,1-.12.74,2.29,2.29,0,0,1-.35.67,1.82,1.82,0,0,1-.59.5,1.68,1.68,0,0,1-.82.19,1.29,1.29,0,0,1-.75-0.19,0.89,0.89,0,0,1-.31-0.28,1.12,1.12,0,0,1,.28-0.35,1,1,0,0,0,.28-0.73,1.25,1.25,0,0,0-.28-0.85,0.94,0.94,0,0,0-.75-0.32,2.56,2.56,0,0,0-1.27.5,8.8,8.8,0,0,0-1.48,1.2v7.88a1.48,1.48,0,0,0,.13.64,1,1,0,0,0,.45.44,2.12,2.12,0,0,0,.94.16,2,2,0,0,1,.45,0,0.46,0.46,0,0,1,.22.48,0.73,0.73,0,0,1-.12.41,0.4,0.4,0,0,1-.35.17q-0.85-.06-1.56-0.07h-3q-0.7,0-1.55.07a0.39,0.39,0,0,1-.35-0.17,0.72,0.72,0,0,1-.12-0.41,0.52,0.52,0,0,1,.24-0.48,2,2,0,0,1,.47,0,2,2,0,0,0,.92-0.16,1,1,0,0,0,.44-0.44,1.48,1.48,0,0,0,.13-0.64v-7.44Z" transform="translate(-101.38 -370.26)" fill="#425968"/><path d="M225,378.84a2.52,2.52,0,0,0-1.55.53,1.79,1.79,0,0,0-.7,1.52,1.32,1.32,0,0,0,.15.63,1.81,1.81,0,0,0,.32.45c0.12,0.12.23,0.21,0.32,0.29a0.44,0.44,0,0,1,.15.15,0.82,0.82,0,0,1-.34.44,1.36,1.36,0,0,1-.92.29,1.63,1.63,0,0,1-1.42-.67,2.51,2.51,0,0,1-.48-1.49,2.32,2.32,0,0,1,.41-1.39,3.06,3.06,0,0,1,1.07-.92,5.25,5.25,0,0,1,1.49-.51,8.84,8.84,0,0,1,1.68-.16,11.9,11.9,0,0,1,2,.16,4.73,4.73,0,0,1,1.72.63,3.62,3.62,0,0,1,1.24,1.3,4.31,4.31,0,0,1,.48,2.17V389a2.18,2.18,0,0,0,.07.52,1.79,1.79,0,0,0,.25.55,1.6,1.6,0,0,0,.47.45,1.32,1.32,0,0,0,.73.19,0.6,0.6,0,0,1,.32.08,0.48,0.48,0,0,1,.12.41,0.42,0.42,0,0,1-.17.35,1.34,1.34,0,0,1-.44.21,3.79,3.79,0,0,1-.54.11l-0.45,0a3.16,3.16,0,0,1-1.93-.63,2.47,2.47,0,0,1-1-1.74,3.19,3.19,0,0,1-.91,1,6.67,6.67,0,0,1-1.27.75,6.9,6.9,0,0,1-1.4.45,6.66,6.66,0,0,1-1.33.15,3.63,3.63,0,0,1-3.33-2.12,3.15,3.15,0,0,1-.29-1.36,3,3,0,0,1,.51-1.78,4.18,4.18,0,0,1,1.3-1.2,7.11,7.11,0,0,1,1.77-.73,15.91,15.91,0,0,1,1.93-.39q0.95-.13,1.76-0.18c0.53,0,1-.06,1.27-0.1v-2.31a3.18,3.18,0,0,0-.67-2.15A3,3,0,0,0,225,378.84Zm3,6.11q-1.4.18-2.46,0.41a7.34,7.34,0,0,0-1.74.58,2.66,2.66,0,0,0-1,.88,2.22,2.22,0,0,0-.35,1.26,2.54,2.54,0,0,0,.53,1.61,1.66,1.66,0,0,0,1.37.67,3.48,3.48,0,0,0,1.4-.29,3.89,3.89,0,0,0,1.18-.79,3.57,3.57,0,0,0,.81-1.2,3.86,3.86,0,0,0,.29-1.49v-1.64Z" transform="translate(-101.38 -370.26)" fill="#425968"/><path d="M235.75,379.48v8.89a3.8,3.8,0,0,0,.09.83,2.47,2.47,0,0,0,.28.72,1.44,1.44,0,0,0,.51.51,1.57,1.57,0,0,0,.82.19,6.55,6.55,0,0,0,.72,0,2.93,2.93,0,0,0,.89-0.28l0.23-.1a0.67,0.67,0,0,1,.23,0,0.39,0.39,0,0,1,.35.19,3.34,3.34,0,0,1,.2.39,0.32,0.32,0,0,1-.14.41,5.47,5.47,0,0,1-1.67.76,7.6,7.6,0,0,1-1.69.17,3.41,3.41,0,0,1-1.29-.25,3.32,3.32,0,0,1-1.11-.75,3.52,3.52,0,0,1-.79-1.27,5.06,5.06,0,0,1-.29-1.8v-8.6l-1.69.06a0.34,0.34,0,0,1-.31-0.16A0.65,0.65,0,0,1,231,379a0.87,0.87,0,0,1,.1-0.42,0.49,0.49,0,0,1,.31-0.25,3.52,3.52,0,0,0,1.31-.47,3.19,3.19,0,0,0,.82-0.74,4,4,0,0,0,.53-1c0.13-.36.27-0.74,0.41-1.13a0.51,0.51,0,0,1,.25-0.31,1,1,0,0,1,.39-0.07,1.11,1.11,0,0,1,.4.09,0.32,0.32,0,0,1,.22.32l-0.21,3.33,3.42-.2a0.31,0.31,0,0,1,.35.14,0.92,0.92,0,0,1,.09.41,1.71,1.71,0,0,1-.1.6,0.33,0.33,0,0,1-.25.28Z" transform="translate(-101.38 -370.26)" fill="#425968"/><path d="M251.31,388.86a6.8,6.8,0,0,1-2.28,2.25,6.06,6.06,0,0,1-3.16.82,7.46,7.46,0,0,1-3-.56,5.88,5.88,0,0,1-2.13-1.52,6.56,6.56,0,0,1-1.29-2.25,8.3,8.3,0,0,1-.44-2.72,7.23,7.23,0,0,1,.45-2.5,7.07,7.07,0,0,1,1.3-2.22,6.52,6.52,0,0,1,2-1.58,6,6,0,0,1,2.72-.6,6.89,6.89,0,0,1,2.35.36,4.61,4.61,0,0,1,2.78,2.59,6.14,6.14,0,0,1,.48,2,1.41,1.41,0,0,1-.57,1.34,3,3,0,0,1-1.48.32H242a10,10,0,0,0,.26,2.37,5.53,5.53,0,0,0,.82,1.87,3.82,3.82,0,0,0,1.43,1.23,4.67,4.67,0,0,0,2.11.44,4,4,0,0,0,2.11-.53,5.45,5.45,0,0,0,1.7-1.84,0.44,0.44,0,0,1,.64,0,0.62,0.62,0,0,1,.29.38A0.49,0.49,0,0,1,251.31,388.86Zm-4.53-5.41a1.94,1.94,0,0,0,1.11-.28,1.2,1.2,0,0,0,.47-1,4.16,4.16,0,0,0-.18-1.2,3.22,3.22,0,0,0-.53-1,2.53,2.53,0,0,0-.88-0.72,2.73,2.73,0,0,0-1.23-.26,3,3,0,0,0-2.46,1.17,5.52,5.52,0,0,0-1.08,3.27h4.77Z" transform="translate(-101.38 -370.26)" fill="#425968"/><polygon points="0 21.98 9.45 21.98 14.26 17.16 9.54 12.44 0 21.98" fill="#8dc63f"/><polygon points="28.52 2.9 19.07 2.9 14.26 7.72 18.99 12.44 28.52 2.9" fill="#00bce4"/><polygon points="9.45 2.9 0 2.9 9.54 12.44 14.26 7.72 9.45 2.9" fill="#00bce4"/><polygon points="37.97 31.43 18.99 12.44 14.26 17.16 28.52 31.43 37.97 31.43" fill="#8dc63f"/><rect x="112.31" y="379.36" width="6.68" height="6.68" transform="translate(-338.05 -176.54) rotate(-44.98)" fill="#0093d0"/><path d="M145.68,399a0.92,0.92,0,0,1-.71-0.66,0.57,0.57,0,0,1,.69-0.51,1.84,1.84,0,0,1,.8.18l0.1,0,0.12-.76-0.06,0a3.06,3.06,0,0,0-1-.16,1.32,1.32,0,0,0-1.5,1.29,1.46,1.46,0,0,0,1.12,1.32,1,1,0,0,1,.78.77,0.71,0.71,0,0,1-.78.64,2.7,2.7,0,0,1-.89-0.21l-0.1,0-0.08.77,0.07,0a3,3,0,0,0,.93.19,1.43,1.43,0,0,0,1.7-1.4A1.6,1.6,0,0,0,145.68,399Z" transform="translate(-101.38 -370.26)" fill="#425968"/><polygon points="46.16 27.64 47.54 27.64 47.54 31.51 48.34 31.51 48.34 27.64 49.72 27.64 49.72 26.91 46.16 26.91 46.16 27.64" fill="#425968"/><path d="M154.2,399.5a1.09,1.09,0,0,0,.78-1c0-1.13-.91-1.28-1.8-1.28H152v4.6h0.8v-2h0.29a0.56,0.56,0,0,1,.66.38l0.7,1.59h0.91l-0.9-1.89A1,1,0,0,0,154.2,399.5Zm-0.06-1a0.71,0.71,0,0,1-.87.61h-0.45V397.9h0.52C153.85,397.9,154.14,398.1,154.14,398.47Z" transform="translate(-101.38 -370.26)" fill="#425968"/><path d="M157.82,397.17l-2,4.6h0.85l0.45-1.12h2.05l0.45,1.12h0.88l-1.94-4.6h-0.78Zm1.12,2.79h-1.51l0.76-1.88Z" transform="translate(-101.38 -370.26)" fill="#425968"/><polygon points="59.19 27.64 60.56 27.64 60.56 31.51 61.37 31.51 61.37 27.64 62.74 27.64 62.74 26.91 59.19 26.91 59.19 27.64" fill="#425968"/><polygon points="63.71 31.51 66.36 31.51 66.36 30.78 64.52 30.78 64.52 29.49 66.19 29.49 66.19 28.76 64.52 28.76 64.52 27.64 66.36 27.64 66.36 26.91 63.71 26.91 63.71 31.51" fill="#425968"/><path d="M171,399.87h0.93v1.19h0a2.36,2.36,0,0,1-.61.06,1.65,1.65,0,0,1,0-3.29,2,2,0,0,1,1.17.29l0.12,0.08,0.07-.85-0.06,0a3.42,3.42,0,0,0-1.33-.23,2.29,2.29,0,0,0-2.43,2.35,2.25,2.25,0,0,0,2.42,2.39,4.22,4.22,0,0,0,1.38-.2l0.06,0v-2.45H171v0.69Z" transform="translate(-101.38 -370.26)" fill="#425968"/><rect x="72.73" y="26.91" width="0.8" height="4.6" fill="#425968"/><path d="M179.39,400.91a2.07,2.07,0,0,1-.92.21,1.65,1.65,0,0,1,0-3.29,1.69,1.69,0,0,1,.87.24l0.12,0.07,0.07-.81-0.06,0a2.51,2.51,0,0,0-1-.2,2.29,2.29,0,0,0-2.42,2.35,2.25,2.25,0,0,0,2.42,2.39,2.75,2.75,0,0,0,1-.17l0.05,0,0-.81Z" transform="translate(-101.38 -370.26)" fill="#425968"/><polygon points="84.34 28.76 82.39 28.76 82.39 26.91 81.59 26.91 81.59 31.51 82.39 31.51 82.39 29.49 84.34 29.49 84.34 31.51 85.14 31.51 85.14 26.91 84.34 26.91 84.34 28.76" fill="#425968"/><polygon points="86.64 31.51 89.29 31.51 89.29 30.78 87.45 30.78 87.45 29.49 89.13 29.49 89.13 28.76 87.45 28.76 87.45 27.64 89.29 27.64 89.29 26.91 86.64 26.91 86.64 31.51" fill="#425968"/><path d="M193.43,397.17l-2,4.6h0.85l0.45-1.12h2.05l0.45,1.12h0.88l-1.94-4.6h-0.78Zm1.12,2.79H193l0.75-1.88Z" transform="translate(-101.38 -370.26)" fill="#425968"/><polygon points="96.46 26.91 95.66 26.91 95.66 31.51 98.31 31.51 98.31 30.78 96.46 30.78 96.46 26.91" fill="#425968"/><polygon points="98.66 27.64 100.03 27.64 100.03 31.51 100.84 31.51 100.84 27.64 102.21 27.64 102.21 26.91 98.66 26.91 98.66 27.64" fill="#425968"/><polygon points="105.94 28.76 103.99 28.76 103.99 26.91 103.18 26.91 103.18 31.51 103.99 31.51 103.99 29.49 105.94 29.49 105.94 31.51 106.74 31.51 106.74 26.91 105.94 26.91 105.94 28.76" fill="#425968"/><path d="M213.27,399a0.92,0.92,0,0,1-.71-0.66,0.58,0.58,0,0,1,.69-0.51,1.81,1.81,0,0,1,.8.18l0.1,0,0.11-.76-0.07,0a3,3,0,0,0-1-.16,1.32,1.32,0,0,0-1.5,1.29,1.46,1.46,0,0,0,1.11,1.32,1,1,0,0,1,.79.77,0.71,0.71,0,0,1-.78.64,2.68,2.68,0,0,1-.89-0.21l-0.1,0-0.08.77,0.07,0a3,3,0,0,0,.93.19,1.43,1.43,0,0,0,1.7-1.4A1.6,1.6,0,0,0,213.27,399Z" transform="translate(-101.38 -370.26)" fill="#425968"/><path d="M217.62,397.1a2.18,2.18,0,0,0-2.22,2.37A2.22,2.22,0,1,0,217.62,397.1Zm1.37,2.37a1.4,1.4,0,1,1-1.38-1.65h0A1.46,1.46,0,0,1,219,399.47Z" transform="translate(-101.38 -370.26)" fill="#425968"/><path d="M223.85,399.77c0,0.92-.32,1.35-1,1.35s-1-.43-1-1.35v-2.6H221v2.68a1.81,1.81,0,1,0,3.61,0v-2.68h-0.81v2.6Z" transform="translate(-101.38 -370.26)" fill="#425968"/><path d="M228.25,399.5a1.09,1.09,0,0,0,.78-1c0-1.13-.91-1.28-1.8-1.28h-1.17v4.6h0.8v-2h0.29a0.56,0.56,0,0,1,.67.38l0.7,1.59h0.91l-0.9-1.89A1,1,0,0,0,228.25,399.5Zm-0.06-1a0.71,0.71,0,0,1-.87.61h-0.45V397.9h0.52C227.9,397.9,228.18,398.1,228.18,398.47Z" transform="translate(-101.38 -370.26)" fill="#425968"/><path d="M233.56,400.91a2.08,2.08,0,0,1-.92.21,1.65,1.65,0,0,1,0-3.29,1.69,1.69,0,0,1,.87.24l0.12,0.07,0.07-.81-0.05,0a2.52,2.52,0,0,0-1-.2,2.29,2.29,0,0,0-2.43,2.35,2.26,2.26,0,0,0,2.42,2.39,2.74,2.74,0,0,0,1-.17l0.05,0,0-.81Z" transform="translate(-101.38 -370.26)" fill="#425968"/><rect x="133.41" y="26.91" width="0.8" height="4.6" fill="#425968"/><polygon points="138.47 30.25 136.66 26.95 136.63 26.91 135.64 26.91 135.64 31.51 136.44 31.51 136.44 28.09 138.32 31.51 139.27 31.51 139.27 26.91 138.47 26.91 138.47 30.25" fill="#425968"/><path d="M244,399.18v0.69h0.93v1.19h0a2.36,2.36,0,0,1-.61.06,1.65,1.65,0,0,1,0-3.29,2,2,0,0,1,1.17.29l0.12,0.08,0.07-.85-0.06,0a3.42,3.42,0,0,0-1.33-.23,2.29,2.29,0,0,0-2.42,2.35,2.25,2.25,0,0,0,2.42,2.39,4.21,4.21,0,0,0,1.38-.2l0.06,0v-2.45H244Z" transform="translate(-101.38 -370.26)" fill="#425968"/><path d="M251.88,379.89a0.93,0.93,0,0,0,.49.14,0.38,0.38,0,0,0,.45-0.36,0.46,0.46,0,0,0-.4-0.42,0.68,0.68,0,0,1-.56-0.61,0.61,0.61,0,0,1,.69-0.58,0.94,0.94,0,0,1,.47.11l-0.08.22a0.8,0.8,0,0,0-.4-0.1,0.35,0.35,0,0,0-.4.32,0.48,0.48,0,0,0,.42.41,0.66,0.66,0,0,1,.54.63,0.64,0.64,0,0,1-.74.62,1.09,1.09,0,0,1-.54-0.14Z" transform="translate(-101.38 -370.26)" fill="#425968"/><path d="M255.27,379.29c0-.3,0-0.66,0-0.92h0c-0.08.24-.16,0.51-0.27,0.81l-0.37,1h-0.21l-0.35-1c-0.1-.3-0.18-0.57-0.24-0.83h0c0,0.26,0,.62,0,0.94l-0.05.91h-0.26l0.15-2.13h0.35l0.36,1c0.09,0.26.16,0.5,0.21,0.72h0c0.06-.21.13-0.45,0.23-0.72l0.38-1h0.35l0.13,2.13h-0.27Z" transform="translate(-101.38 -370.26)" fill="#425968"/></svg>