<?xml version="1.0" encoding="UTF-8"?>
<svg version="1.1" xmlns="http://www.w3.org/2000/svg" width="250" height="170">
<path d="M0 0 C3.34125 -0.0825 6.6825 -0.165 10.125 -0.25 C11.16672363 -0.28641602 12.20844727 -0.32283203 13.28173828 -0.36035156 C19.18230039 -0.43071795 22.52806305 0.04123614 27 4 C28.75642569 7.51285138 28.69106942 11.17732773 28 15 C26.3182497 17.69668415 24.32693273 19.84620215 22 22 C22.75796875 23.04800781 22.75796875 23.04800781 23.53125 24.1171875 C24.50578125 25.48230469 24.50578125 25.48230469 25.5 26.875 C26.1496875 27.77992187 26.799375 28.68484375 27.46875 29.6171875 C29 32 29 32 29 34 C24.05823746 34.97070336 24.05823746 34.97070336 21 34 C18.66659721 31.31962282 16.87113186 28.55600052 15.0546875 25.50390625 C13.16797879 22.7047829 13.16797879 22.7047829 9.7578125 22.15234375 C8.84773438 22.10207031 7.93765625 22.05179688 7 22 C7 25.96 7 29.92 7 34 C4.69 34 2.38 34 0 34 C0 22.78 0 11.56 0 0 Z M7 6 C7 9.3 7 12.6 7 16 C8.77049689 16.05410687 10.54146849 16.09284119 12.3125 16.125 C13.79169922 16.15980469 13.79169922 16.15980469 15.30078125 16.1953125 C18.22406527 16.20682639 18.22406527 16.20682639 21 14 C20.74438677 11.6568787 20.40729228 9.32156597 20 7 C17.35541621 5.67770811 15.32238699 5.90322806 12.375 5.9375 C10.87066406 5.95103516 10.87066406 5.95103516 9.3359375 5.96484375 C8.17964844 5.98224609 8.17964844 5.98224609 7 6 Z " fill="#083B60" transform="translate(39,68)"/>
<path d="M0 0 C3.56609084 2.45119326 5.41158928 5.16054909 6.76171875 9.2109375 C7.25160728 14.77639241 7.52986416 19.61774702 5.07421875 24.7109375 C0.13519057 30.05042743 -3.93799376 32.61275341 -11.23828125 33.2109375 C-17.15491934 32.79139407 -21.1180031 30.52285649 -25.23828125 26.2109375 C-28.07296019 21.2030047 -29.03902407 16.84950151 -28.23828125 11.2109375 C-26.17031976 4.43261928 -22.9817609 1.27970257 -16.86328125 -2.1015625 C-10.45080826 -3.78101971 -5.71270678 -3.16499668 0 0 Z M-20.23828125 9.2109375 C-21.7485919 13.34307955 -21.51907434 16.38415786 -20.11328125 20.5234375 C-18.01523566 23.53063618 -16.61270124 24.7983896 -13.23828125 26.2109375 C-10.16614742 26.7338539 -8.24443956 26.84271132 -5.55859375 25.15625 C-3.35094908 23.37112105 -1.5189183 21.7722116 -0.23828125 19.2109375 C0.11204231 13.86850317 0.21782565 10.56307211 -3.23828125 6.2109375 C-9.68466277 1.91334982 -15.40123464 3.54805367 -20.23828125 9.2109375 Z " fill="#083B61" transform="translate(98.23828125,69.7890625)"/>
<path d="M0 0 C2.42533595 3.63800393 4.14818738 6.25440291 3.76953125 10.71484375 C0.73529456 23.66810799 -8.55270454 35.60824923 -19.4375 42.875 C-33.40317692 51.19163907 -49.43443539 53.85596176 -65.43359375 50.12890625 C-75.00722602 47.14020836 -84.28813867 42.56779199 -90 34 C-87.0109216 35.4266056 -84.28344349 37.08431802 -81.5 38.875 C-68.93991774 46.34513639 -56.04421604 47.94552453 -41.8125 44.9375 C-26.42288526 40.42711088 -15.37769788 31.231784 -7.70385742 17.3449707 C-4.73644073 11.73079364 -2.25903419 5.92996474 0 0 Z " fill="#75BD42" transform="translate(222,90)"/>
<path d="M0 0 C1.36934919 1.29631723 2.71600016 2.61909451 4 4 C3.67 4.66 3.34 5.32 3 6 C2.39414063 5.54109375 1.78828125 5.0821875 1.1640625 4.609375 C-11.23951274 -4.47385856 -22.82141281 -7.22348814 -38 -6 C-46.96358104 -4.42031553 -54.6032634 -1.27384649 -62 4 C-62.61101562 4.41636719 -63.22203125 4.83273438 -63.8515625 5.26171875 C-73.19888638 12.36824581 -78.60419448 23.440835 -82.80859375 34.1015625 C-84 37 -84 37 -86 40 C-88.25392322 35.67246742 -89.67493826 32.34237521 -88.75 27.3515625 C-84.39234479 13.68849773 -74.22922974 1.50929869 -61.83984375 -5.59765625 C-41.2809129 -15.74986557 -18.57891013 -12.75901057 0 0 Z " fill="#75BE42" transform="translate(208,40)"/>
<path d="M0 0 C0.61875 0.474375 1.2375 0.94875 1.875 1.4375 C0.125 6.3125 0.125 6.3125 -2.125 7.4375 C-2.66125 7.128125 -3.1975 6.81875 -3.75 6.5 C-7.26051539 4.92950627 -10.29792161 5.30993072 -14.125 5.4375 C-14.125 6.7575 -14.125 8.0775 -14.125 9.4375 C-13.14917969 9.75203125 -12.17335937 10.0665625 -11.16796875 10.390625 C-9.88257714 10.82221634 -8.59743361 11.254547 -7.3125 11.6875 C-6.66990234 11.89246094 -6.02730469 12.09742187 -5.36523438 12.30859375 C-1.47177908 13.64003442 0.94542566 14.72516676 2.875 18.4375 C3.40698011 23.225321 3.60009014 25.30152545 1 29.375 C-3.15040837 33.40333753 -7.2726965 32.75678427 -12.8359375 32.73828125 C-17.27511994 32.33232276 -19.58899399 31.06894633 -23.125 28.4375 C-22.7728759 25.79656923 -22.46771564 24.71901642 -20.375 23 C-19.6325 22.814375 -18.89 22.62875 -18.125 22.4375 C-17.403125 22.89125 -16.68125 23.345 -15.9375 23.8125 C-12.00388611 26.08525469 -8.56515185 25.6986854 -4.125 25.4375 C-4.69558725 22.94916479 -4.69558725 22.94916479 -6.125 20.4375 C-8.83363008 19.14775602 -8.83363008 19.14775602 -12 18.4375 C-15.7235331 17.31686833 -17.87257747 16.6497644 -20.875 14.125 C-22.52434582 10.57890649 -22.67793863 8.30807042 -22.125 4.4375 C-20.37898395 1.52747324 -18.83735973 -0.10156135 -16 -1.9375 C-10.46266027 -3.14126951 -5.05815088 -2.52907544 0 0 Z " fill="#083B60" transform="translate(176.125,69.5625)"/>
<path d="M0 0 C2.866875 -0.061875 5.73375 -0.12375 8.6875 -0.1875 C10.02880981 -0.22846802 10.02880981 -0.22846802 11.3972168 -0.27026367 C16.10491727 -0.31936271 19.18001286 -0.06333584 23 3 C25.33772514 5.90200363 25.96474659 7.72300894 26.4375 11.4375 C25.91606726 15.68345227 24.73082959 17.73817577 22 21 C18.61023475 23.24723277 15.75322292 23.21202659 11.75 23.125 C10.67234375 23.10695313 9.5946875 23.08890625 8.484375 23.0703125 C7.66453125 23.04710938 6.8446875 23.02390625 6 23 C6 26.63 6 30.26 6 34 C4.02 34 2.04 34 0 34 C0 22.78 0 11.56 0 0 Z M6 6 C6 9.63 6 13.26 6 17 C11.96795446 17.40409629 11.96795446 17.40409629 17.5625 15.8125 C19.18842795 14.04514765 19.18842795 14.04514765 19.5 11.5 C19.18842795 8.95485235 19.18842795 8.95485235 17.5625 7.1875 C13.66280981 5.3803265 10.2730991 5.81148092 6 6 Z " fill="#083B60" transform="translate(10,68)"/>
<path d="M0 0 C2.64 0 5.28 0 8 0 C9.3417678 3.26743656 10.67194359 6.53946908 12 9.8125 C12.3815625 10.74126953 12.763125 11.67003906 13.15625 12.62695312 C13.5171875 13.51962891 13.878125 14.41230469 14.25 15.33203125 C14.58515625 16.15421143 14.9203125 16.9763916 15.265625 17.82348633 C16 20 16 20 16 23 C16.66 23 17.32 23 18 23 C18.09152344 22.19304687 18.18304688 21.38609375 18.27734375 20.5546875 C19.17583146 16.13509929 20.79359908 12.25827343 22.5625 8.125 C22.89185547 7.34125 23.22121094 6.5575 23.56054688 5.75 C24.36796786 3.83091244 25.18319769 1.9151135 26 0 C28.64 0 31.28 0 34 0 C32.41960427 3.98033952 30.8351462 7.9590502 29.25 11.9375 C28.8065625 13.05447266 28.363125 14.17144531 27.90625 15.32226562 C25.39862594 21.60976419 22.81573009 27.84382632 20 34 C18.02 34 16.04 34 14 34 C10.43733409 27.19930363 7.57292225 20.19776423 4.75 13.0625 C4.29109375 11.91458984 3.8321875 10.76667969 3.359375 9.58398438 C0 1.14055525 0 1.14055525 0 0 Z " fill="#083B61" transform="translate(105,68)"/>
<path d="M0 0 C2.31 0 4.62 0 7 0 C10.9655668 7.60569195 14.64969163 15.26419722 17.9375 23.1875 C18.24373291 23.91767334 18.54996582 24.64784668 18.86547852 25.40014648 C20.09572069 28.41333808 21 30.71371802 21 34 C18.69 34 16.38 34 14 34 C10.7 26.08 7.4 18.16 4 10 C0.75142752 17.52317084 0.75142752 17.52317084 -2.49194336 25.04858398 C-2.89550049 25.98001221 -3.29905762 26.91144043 -3.71484375 27.87109375 C-4.12855225 28.82943115 -4.54226074 29.78776855 -4.96850586 30.77514648 C-6 33 -6 33 -7 34 C-9.33297433 34.04092937 -11.66705225 34.04241723 -14 34 C-9.74993511 22.48851771 -4.88240101 11.25394231 0 0 Z " fill="#083B61" transform="translate(219,68)"/>
<path d="M0 0 C9.24 0 18.48 0 28 0 C28 1.98 28 3.96 28 6 C24.37 6 20.74 6 17 6 C17 15.24 17 24.48 17 34 C15.02 34 13.04 34 11 34 C11 24.76 11 15.52 11 6 C7.37 6 3.74 6 0 6 C0 4.02 0 2.04 0 0 Z " fill="#083B60" transform="translate(181,68)"/>
<path d="M0 0 C2.31 0 4.62 0 7 0 C7 11.22 7 22.44 7 34 C4.69 34 2.38 34 0 34 C0 22.78 0 11.56 0 0 Z " fill="#083B60" transform="translate(142,68)"/>
<path d="M0 0 C2.31 0 4.62 0 7 0 C7 0.99 7 1.98 7 3 C5.02 3 3.04 3 1 3 C0.67 2.01 0.34 1.02 0 0 Z " fill="#083B60" transform="translate(233,68)"/>
</svg>
