<?xml version="1.0" encoding="utf-8"?>
<!-- Generator: Adobe Illustrator 22.0.1, SVG Export Plug-In . SVG Version: 6.00 Build 0)  -->
<svg version="1.1" id="Logo"
  xmlns="http://www.w3.org/2000/svg"
  xmlns:xlink="http://www.w3.org/1999/xlink" x="0px" y="0px" viewBox="0 0 171 42" style="enable-background:new 0 0 171 42;" xml:space="preserve">
  <style type="text/css">
	.st0{fill:#FF4E00;}
  </style>
  <g>
    <path class="st0" d="M11.4,40.1c-7.6-9-11.1-26.5-11.1-26.7c-0.1-0.4,0.1-1,0.9-1h4.9c0.5,0,0.8,0.2,0.9,0.8c2,9.2,5.8,18,7.6,20.5
		c1.8-2.5,5.6-11.3,7.6-20.5c0.1-0.5,0.4-0.8,0.9-0.8H28c0.8,0,1,0.5,0.9,1c0,0.2-3.5,17.7-11.1,26.7c-0.8,1-1.9,1.5-3.2,1.5
		C13.3,41.6,12.3,41.1,11.4,40.1z M36.2,0c-2.2,0-4,1.8-4,4c0,2.2,1.8,4,4,4c2.2,0,4-1.8,4-4C40.2,1.8,38.4,0,36.2,0z M73.8,0
		c-2.2,0-4,1.8-4,4c0,2.2,1.8,4,4,4c2.2,0,4-1.8,4-4C77.8,1.8,76,0,73.8,0z M38.5,12.5H34c-0.7,0-1,0.3-1,1v26.9c0,0.7,0.3,1,1,1
		h4.5c0.7,0,1-0.3,1-1V13.4C39.5,12.8,39.2,12.5,38.5,12.5z M76.1,12.5h-4.5c-0.7,0-1,0.3-1,1v26.9c0,0.7,0.3,1,1,1h4.5
		c0.7,0,1-0.3,1-1V13.4C77.1,12.8,76.8,12.5,76.1,12.5z M111.2,40.4c0,0.7,0.3,1,1,1h4.5c0.7,0,1-0.3,1-1V18.6
		c1.3-0.9,5.6-2.3,8.6-0.5c1.9,1.1,2.6,4.1,2.5,7.5l0,14.8c0,0.7,0.3,1,1,1h4.5c0.7,0,1-0.3,1-1V25.1c0-9-4.1-13.6-12.4-13.6
		c-4,0-8.4,1.5-10.7,3.5c-0.8,0.7-1.2,1.5-1.2,2.5L111.2,40.4z M156.4,17.8c0.7,0,1-0.3,1-1v-3.3c0-0.7-0.3-1-1-1h-7V5.7
		c0-0.7-0.3-1-1-1h-4.5c-0.7,0-1,0.3-1,1v6.7H139c-0.7,0-1,0.3-1,1v3.3c0,0.7,0.3,1,1,1l3.8,0v13.9c0,4.1,1.5,6.4,2.3,7.3
		c0.8,0.9,2.7,2.8,6.7,2.8c3.5,0,6.5-2,7.7-3.2c0.5-0.5,0.4-0.8,0.1-1.1c-0.1-0.1-2.3-3-2.3-3c-0.3-0.4-0.9-0.4-1.2-0.1
		c-0.8,0.7-2.5,2.1-4.8,1.2c-1.7-0.6-2-2.5-2-3.8V17.8H156.4z M100.4,29h-12c0,3.8,2.6,7.2,6.9,7.2c2.6,0,5-0.9,7-2.7
		c0.7-0.7,1.2,0.1,1.2,0.1c0,0,2,2.9,2.3,3.3c0.1,0.1,0.2,0.4-0.3,0.9c-2.7,2.7-6.2,4.1-10.5,4.1c-8.7,0-13.2-7.1-13.2-15.2
		c0-9.7,6.2-15.2,13.3-15.2c6.1,0,11.4,4.7,11.4,11.1C106.7,26.9,104.6,29,100.4,29z M100.6,22.5c0-2.3-1.4-5.6-5.6-5.6
		c-1.6,0-5.7,0.6-6.3,6.9h10.7C100.2,23.8,100.6,23.3,100.6,22.5z M65.3,41.3c0.7,0,1-0.3,1-1v-3.6c0-0.7-0.3-1-1-1l-13.6,0
		c1.3-3.3,9.7-11.4,12.6-16c1.1-1.7,1.6-3,1.6-3.9c0-1-0.5-3.2-3.9-3.2H46c-0.7,0-1,0.3-1,1v3.6c0,0.7,0.3,1,1,1l12.2,0
		c-0.6,1.2-8.7,9.8-11.7,15c-0.8,1.4-1.9,3.5-1.9,5.1c0,2.1,1.2,3.1,3.7,3.1H65.3z"/>
    <path class="st0" d="M168.2,38.8c0,1.3-1.1,2.4-2.4,2.4s-2.4-1.1-2.4-2.4c0-1.3,1.1-2.4,2.4-2.4S168.2,37.5,168.2,38.8z
		 M165.8,35.8c-1.7,0-3,1.3-3,3c0,1.7,1.3,3,3,3c1.7,0,3-1.3,3-3C168.8,37.2,167.5,35.8,165.8,35.8z M166.5,40.3l-0.7-1.2h-0.6v1.2
		h-0.5v-3.1h1.2c0.3,0,0.6,0.1,0.7,0.2c0.2,0.1,0.3,0.4,0.3,0.7v0.1c0,0.2-0.1,0.4-0.2,0.5c-0.1,0.1-0.2,0.2-0.4,0.3l0.8,1.3H166.5z
		 M165.2,38.7h0.6c0.2,0,0.4,0,0.5-0.1c0.1-0.1,0.2-0.2,0.2-0.4v-0.1c0-0.2-0.1-0.3-0.2-0.4c-0.1-0.1-0.2-0.1-0.4-0.1h-0.6V38.7z"/>
  </g>
</svg>
